<?xml version="1.0" encoding="UTF-8"?>
<svg xmlns="http://www.w3.org/2000/svg" width="347.2" height="102.1" viewBox="0 0 347.2 102.1">
  <g transform="translate(0, -129.9)">
    <path fill="#7BA06A" d="M260,209.1s-1.5,0-2.1,0v3.9h-3.4v-13.5c2.2-.1,3.8-.2,5.4-.2,3.2,0,5.4,1.9,5.4,4.8s-2.6,4.9-5.2,4.9h0ZM259.2,202.2h-1.3v4.1h1.1c2.1,0,2.5-.9,2.5-2.1s-.5-2-2.4-2Z"></path>
    <path fill="#FFFFFF" d="M165.6,185.2l-3.1-7.7h-11.5l-3.5,7.7h-8.9l16.3-35.2h4.9l15.3,35.2h-9.4ZM156.9,164.1l-3.4,7.9h6.6l-3.2-7.9h0Z"></path>
    <path fill="#FFFFFF" d="M201.9,185.2c-1-1-2.7-2.6-4.6-4.8-.2-.3-4.5-4.9-7-8v12.9h-8.6v-33.9c5.1-.3,8.5-.5,12-.5,7.6,0,15.1,2.6,15.1,10.7s-3.1,7.8-8.7,9.5c5.3,6.2,7,8.6,13.2,14.2h-11.4,0ZM192.7,158.1h-2.5v8.7h2.6c5.4,0,6.7-1.4,6.7-4.2s-1.3-4.6-6.8-4.4h0Z"></path>
    <path fill="#FFFFFF" d="M248.8,161c-5.7-2.6-8.9-3.1-13.3-3.1-6.2,0-10.4,3.8-10.4,10.1s4.3,10.5,11.2,10.5,6.6-.5,12.4-3.1l.9,7.9c-4.9,2-9,2.5-13.7,2.5-9.7,0-20.1-5.9-20.1-17.5s8.6-17.8,20.3-17.8,8.7.6,13.5,2.4c0,0-.9,8-.9,8Z"></path>
    <path fill="#FFFFFF" d="M275.5,185.9c-11.8,0-19.8-8-19.8-17.7s8.1-17.7,19.8-17.7,19.8,8,19.8,17.7-8.1,17.7-19.8,17.7ZM275.5,157.7c-6.6,0-10.6,4.6-10.6,10.5s3.9,10.4,10.6,10.4,10.5-4.7,10.5-10.4-3.9-10.5-10.5-10.5Z"></path>
    <path fill="#FFFFFF" d="M338.5,185.3l-1.5-20.4-12.8,21.7-11.1-21.2-1.8,19.9h-8.4l3.1-34.2h9c3.8,7.2,6.6,12.9,9.9,19,3.7-6.6,6.7-11.8,10.6-19h8.6l3.1,34.2h-8.7Z"></path>
    <path fill="#7BA06A" d="M150,213.1c-.7.1-1.7.2-3,.2-5.3,0-8.3-3-8.3-7.1s3.2-6.9,8-6.9,3.4.2,5.4.9l-.3,3.2c-2.2-1-3.5-1.2-5.1-1.2-2.7,0-4.3,1.7-4.3,4s1.8,4.2,4.7,4.2,1.4,0,1.9-.2v-2h-2.7v-2.7h6.1v7.2c-1.3.3-1.8.4-2.5.5h0Z"></path>
    <path fill="#7BA06A" d="M176.8,213.1c-.4-.4-1.1-1.1-1.8-1.9-.1-.1-1.8-2-2.8-3.2v5.1h-3.4v-13.5c2-.1,3.4-.2,4.8-.2,3,0,6,1,6,4.3s-1.2,3.1-3.5,3.8c2.1,2.5,2.8,3.4,5.2,5.7h-4.5ZM173.2,202.3h-1v3.5h1c2.2,0,2.7-.5,2.7-1.7s-.5-1.8-2.7-1.8h0Z"></path>
    <path fill="#7BA06A" d="M202.1,213.3c-4.7,0-7.9-3.2-7.9-7s3.2-7,7.9-7,7.9,3.2,7.9,7-3.2,7-7.9,7ZM202.1,202.1c-2.6,0-4.2,1.8-4.2,4.2s1.5,4.1,4.2,4.1,4.2-1.9,4.2-4.1-1.6-4.2-4.2-4.2Z"></path>
    <path fill="#7BA06A" d="M231.5,213.3c-3,0-6.3-1.5-6.3-4.7v-9h3.4v8.5c0,1.8,1.5,2.4,3,2.4s3.1-.6,3.1-2.4v-8.5h3.4v8.6c0,3.8-3,5.2-6.7,5.2h0Z"></path>
    <polygon fill="#7BA06A" points="102.1 232 8.9 232 82.2 175.2 82.2 129.9 102.1 129.9 102.1 232"></polygon>
    <polygon fill="#FFFFFF" points="70.9 170 0 225.1 0 129.9 70.9 129.9 70.9 170"></polygon>
  </g>
</svg>
